<?xml version="1.0" standalone="no"?>
<!DOCTYPE svg PUBLIC "-//W3C//DTD SVG 20010904//EN"
 "http://www.w3.org/TR/2001/REC-SVG-20010904/DTD/svg10.dtd">
<svg version="1.0" xmlns="http://www.w3.org/2000/svg"
 width="600.000000pt" height="600.000000pt" viewBox="0 0 600.000000 600.000000"
 preserveAspectRatio="xMidYMid meet">

<g transform="translate(0.000000,600.000000) scale(0.100000,-0.100000)"
fill="#FFFFFF" stroke="none">
<path d="M1829 4103 l-46 -4 -7 -46 c-25 -187 26 -442 121 -598 120 -199 295
-347 515 -436 108 -45 210 -68 346 -81 l123 -12 -2 -121 -1 -121 -49 -17 c-32
-12 -73 -40 -114 -79 -196 -182 -200 -475 -9 -658 69 -67 137 -102 232 -121
124 -26 266 26 370 135 130 135 165 309 96 482 -22 55 -42 84 -98 140 -44 44
-91 80 -123 95 l-53 24 0 100 c0 55 -3 110 -6 123 -6 21 -3 22 42 22 91 1 259
29 351 59 178 58 315 144 441 275 142 148 228 321 259 521 16 110 13 289 -7
309 -20 20 -271 12 -377 -12 -203 -46 -342 -122 -496 -271 -162 -156 -279
-386 -320 -625 -12 -73 -27 -93 -27 -36 0 33 -33 165 -62 245 -129 362 -402
607 -768 689 -70 15 -255 26 -331 19z"/>
</g>
</svg>
